<svg width="18" height="17" viewBox="0 0 18 17" fill="none" xmlns="http://www.w3.org/2000/svg">
<path d="M3.77754 1.88972C3.77729 2.39065 3.57806 2.87097 3.22367 3.225C2.86928 3.57904 2.38876 3.77779 1.88783 3.77754C1.38689 3.77729 0.906577 3.57806 0.552541 3.22367C0.198504 2.86928 -0.00025023 2.38876 2.36438e-07 1.88783C0.000250703 1.38689 0.199486 0.906577 0.553876 0.552541C0.908267 0.198504 1.38878 -0.00025023 1.88972 2.36438e-07C2.39065 0.000250703 2.87097 0.199486 3.225 0.553876C3.57904 0.908267 3.77779 1.38878 3.77754 1.88972ZM3.83421 5.17618H0.0566633V16.9999H3.83421V5.17618ZM9.80272 5.17618H6.04407V16.9999H9.76495V10.7953C9.76495 7.33882 14.2697 7.01773 14.2697 10.7953V16.9999H18V9.51091C18 3.68405 11.3326 3.90126 9.76495 6.76275L9.80272 5.17618Z" fill="#FFFAFA"/>
</svg>
