<svg width="31" height="31" viewBox="0 0 31 31" fill="none" xmlns="http://www.w3.org/2000/svg">
<path d="M16.1333 28.5333L31 13.6666L19.6667 2.33325L16.9333 5.06659L24.8 12.9333L21.0333 16.6999L14.1333 9.79992L5.76667 18.1999L7.63333 20.0666L14.7333 12.9666L15.7 13.8999L8.63333 21.0333L10.5 22.8999L17.6 15.7999L18.5333 16.7333L11.4333 23.8333L13.3 25.6999L20.4 18.5999L21.3667 19.5666L14.2667 26.6666L16.1333 28.5333ZM4.7 17.3333L14.1 7.93325L21 14.8333L22.9 12.9333L12.3 2.33325L1 13.6333L4.7 17.3333Z" fill="url(#paint0_linear_540_382)"/>
<defs>
<linearGradient id="paint0_linear_540_382" x1="1" y1="15.4333" x2="31.2134" y2="16.0559" gradientUnits="userSpaceOnUse">
<stop stop-color="#030B4D"/>
<stop offset="1" stop-color="#071AB3"/>
</linearGradient>
</defs>
</svg>
